<svg width="24" height="24" viewBox="0 0 24 24" fill="none" xmlns="http://www.w3.org/2000/svg">
<g clip-path="url(#clip0_56_9)">
<rect x="24" width="24" height="24" rx="12" transform="rotate(90 24 0)" fill="#E092B7"/>
<path d="M18.7347 12.1483C18.9046 11.9793 19 11.7501 19 11.5111C19 11.2721 18.9046 11.0429 18.7347 10.8739L13.6085 5.77516C13.5249 5.68907 13.4249 5.62041 13.3144 5.57317C13.2038 5.52594 13.0849 5.50107 12.9646 5.50003C12.8443 5.49899 12.7249 5.5218 12.6136 5.56712C12.5022 5.61244 12.401 5.67936 12.3159 5.76399C12.2309 5.84861 12.1636 5.94925 12.118 6.06001C12.0725 6.17078 12.0495 6.28946 12.0506 6.40914C12.0516 6.52881 12.0766 6.64708 12.1241 6.75705C12.1716 6.86701 12.2406 6.96646 12.3272 7.04961L15.9065 10.6098L3.90617 10.6098C3.66584 10.6098 3.43535 10.7047 3.26541 10.8738C3.09547 11.0428 3 11.272 3 11.5111C3 11.7501 3.09547 11.9794 3.26541 12.1484C3.43535 12.3174 3.66584 12.4124 3.90617 12.4124L15.9065 12.4124L12.3272 15.9725C12.1621 16.1425 12.0708 16.3702 12.0728 16.6065C12.0749 16.8428 12.1702 17.0689 12.3382 17.236C12.5062 17.4031 12.7335 17.4979 12.9711 17.5C13.2087 17.502 13.4376 17.4112 13.6085 17.247L18.7347 12.1483Z" fill="black"/>
</g>
<rect x="23.5" y="0.5" width="23" height="23" rx="11.5" transform="rotate(90 23.5 0.5)" stroke="#E092B7"/>
<defs>
<clipPath id="clip0_56_9">
<rect x="24" width="24" height="24" rx="12" transform="rotate(90 24 0)" fill="white"/>
</clipPath>
</defs>
</svg>
