<svg width="19" height="17" viewBox="0 0 19 17" fill="none" xmlns="http://www.w3.org/2000/svg">
<rect x="0.5" y="0.5" width="18" height="16" rx="8" stroke="#E092B7"/>
<path d="M8.01 7.92H6.67V9.96C6.67 10.12 6.67 10.26 6.69 10.41C6.73 10.72 6.85 10.91 7.15 10.91C7.37 10.91 7.54 10.85 7.72 10.76L8.16 11.81C7.82 12.01 7.32 12.12 6.91 12.12C6.09 12.12 5.54 11.67 5.35 10.99C5.27 10.73 5.25 10.42 5.25 10.11V7.92H4.62V6.74H5.25L5.47 5.58H6.67V6.74H8.01V7.92ZM12.9593 6.73C12.5693 6.4 12.0493 6.1 11.5093 6.1C11.0293 6.1 10.5993 6.34 10.5993 6.8C10.5993 7.34 11.2593 7.49 11.7993 7.68C12.7893 8.02 13.9793 8.48 13.9793 9.95C13.9793 11.47 12.5493 12.12 11.3293 12.12C10.2493 12.12 9.4093 11.71 8.6493 10.95L9.5993 10.02C10.1693 10.57 10.6093 10.9 11.3393 10.9C11.8993 10.9 12.4493 10.63 12.4493 10.01C12.4493 9.41 11.8093 9.18 11.0993 8.92C10.1893 8.58 9.1693 8.18 9.1693 6.84C9.1693 5.51 10.2993 4.88 11.4593 4.88C12.3593 4.88 13.0693 5.17 13.7793 5.71L12.9593 6.73Z" fill="#E092B7"/>
</svg>
